<?xml version="1.0" standalone="no"?><!DOCTYPE svg PUBLIC "-//W3C//DTD SVG 1.1//EN" "http://www.w3.org/Graphics/SVG/1.1/DTD/svg11.dtd"><svg t="1768716197468" class="icon" viewBox="0 0 1024 1024" version="1.1" xmlns="http://www.w3.org/2000/svg" p-id="2458" xmlns:xlink="http://www.w3.org/1999/xlink" width="32" height="32"><path d="M243.2 658.8s96.6 75.5 135.3 165.7S405.1 995 405.1 995l212.6-2.4s-12.1-250.9 125.6-341.1L881 561.3l-77.3-82.8-181.2 87.7-248.8-141.3-130.5 233.9z" fill="#FFFFFF" p-id="2459"></path><path d="M330.1 645.7s96.6 75.5 135.3 165.7S492 982 492 982l127.3 1.9S607.2 733 744.9 642.8s137.7-90.1 137.7-90.1l-77.3-82.8-181.2 87.7-163.5-145.7-130.5 233.8z" fill="#E4EADC" p-id="2460"></path><path d="M405.1 1016.1c-5.8 0-11.3-2.5-15.1-6.9-3.9-4.4-5.6-10.3-4.7-16.1 0.1-0.7 10.6-76.3-25.2-159.7-36.2-84.5-128.3-157.1-129.2-157.8-4.2-3.3-6.9-8.1-7.5-13.4-0.6-5.3 0.8-10.6 4.1-14.8l83.9-106.8c3.4-4.3 8.5-7.1 14-7.6s11 1.3 15.1 5l134.4 120.5c1.5 1.3 2.8 2.9 3.8 4.6l57.1 95 83.9-147.3c1.2-2 2.7-3.8 4.4-5.4l166.7-141.3c8.1-6.9 20.3-6.2 27.6 1.6l77.3 82.8c4 4.3 5.9 10.2 5.2 16-0.7 5.9-4 11.1-8.9 14.3l-137.7 90.1c-126.4 82.8-116.7 321-116.6 323.4 0.3 5.4-1.7 10.7-5.4 14.7s-8.9 6.2-14.3 6.3l-212.6 2.4c-0.2 0.4-0.2 0.4-0.3 0.4zM271 656.9c29.8 26 94.9 88.2 125.9 160.7 28.2 65.8 30.9 126.4 29.8 158.2l170.7-2c0.2-25.1 2.1-70.2 11.8-120.7 8.6-44.8 21.5-84.6 38.5-118.3 21.8-43.2 50.2-76.6 84.6-99.1l117.8-77.1-48.1-51.5-149.4 126.7-99 173.9c-3.5 6.2-10 10-17.1 10.1-7.1 0.1-13.7-3.6-17.4-9.7L446 686.4 329.7 582.2 271 656.9z" fill="#424649" p-id="2461"></path><path d="M778.3 303.7c-3.7 0-7.3 0.1-11 0.3 16.8-27.1 26.4-58.6 26.4-92.2C793.7 110.2 706 28 597.8 28c-98.3 0-179.6 67.9-193.7 156.4-28.6-42.7-79.2-71.2-137-71.2-89.2 0-161.6 67.9-161.6 151.6 0 47.6 23.4 90 59.9 117.8-81.6 16.9-142.6 85.1-142.6 166.7 0 94.3 81.5 170.7 181.9 170.7 72.8 0 135.7-40.2 164.7-98.2 11.4 35.2 63.9 75 122.9 71.8 71.9-3.9 83-60.6 113.1-89.2 35.9 68.8 127.9 117.9 215 117.9 121.9 0 178.6-97.1 178.6-211.5s-98.8-207.1-220.7-207.1z" fill="#FFFFFF" p-id="2462"></path><path d="M782.5 303.4c-3.7 0-7.3 0.1-11 0.3 16.8-27.1 26.4-58.6 26.4-92.2C797.9 110 710.2 27.7 602 27.7c-98.3 0-179.6 67.9-193.7 156.4-28.6-42.7-51.8-57-109.5-55.1-32.5 1.1-89.6 38.1-98.8 121.3-7.5 67.4 29.3 111.5 65.9 139.3-81.6 16.9-134.5 82.7-134.5 164.3 0 94.3 58 150.2 158.5 150.2 18 0 54.8-24.4 83.9-82.4 11.4 35.2 63.9 75 122.9 71.8 71.9-3.9 83-60.6 113.1-89.2 35.9 68.8 127.9 117.9 215 117.9 121.9 0 178.6-97.1 178.6-211.5s-98.9-207.3-220.9-207.3z" fill="#afefbc" p-id="2463" data-spm-anchor-id="a313x.search_index.0.i2.18e63a81Vrkpr0" class="selected"></path><path d="M204.7 741c-53.7 0-104.2-19.7-142.3-55.4-38.5-36.1-59.6-84.2-59.6-135.4 0-43.9 16.2-86.8 45.6-120.7 21-24.2 48-43.1 78.1-55.1-26.4-30.4-41-68.5-41-108.7 0-94.6 81.5-171.6 181.6-171.6 48.6 0 94 18 127.6 49.4 12.5-32.7 33.8-62.1 62.1-85.1 39.1-31.9 89.2-49.5 141-49.5 57.4 0 111.5 21 152.2 59.3 41.1 38.5 63.7 89.9 63.7 144.6 0 25-4.9 49.7-14.2 72.8 56.1 4.6 108.2 27.3 148.6 65.2 45.8 42.9 71 100.1 71 161 0 62-20.7 119.1-58.3 160.8-19.4 21.5-42.6 38.3-69.1 50-27.6 12.1-58 18.3-90.4 18.3-70.3 0-133-32.3-190.9-98.5-7.9 12.6-18.1 24.4-30.1 34.6-23.3 19.3-51.3 31.5-80.9 35-33.2 3.9-65-2.4-94.6-18.9-14.4-8-28.2-18.5-40.2-30.5-14.7 20.9-33 38-54.7 51-30.3 18.1-65.7 27.4-105.2 27.4z m62.4-606.9c-78.1 0-141.6 59-141.6 131.6 0 39.6 19 76.8 52 101.9 6.2 4.7 9.1 12.7 7.4 20.3s-7.8 13.6-15.5 15.2c-35.6 7.3-67.8 26-90.8 52.6-23.4 27-35.8 59.7-35.8 94.5 0 83.1 72.6 150.7 161.9 150.7 63.4 0 112.7-28.9 139.1-81.5 3.1-6.3 9.3-10.4 16.3-11 7-0.5 13.8 2.6 17.8 8.3 7 9.7 22.2 28.1 46.2 41.3 22.2 12.3 45.9 17 70.6 14.1 21.9-2.6 42.5-11.6 59.7-26.1 15.8-13.3 27.1-30 31.6-46.9 2-7.4 8-12.9 15.4-14.4 7.5-1.5 15.1 1.4 19.8 7.5 25.6 33.6 51.1 58.5 77.8 76.3 32.5 21.6 65.9 32.1 102.2 32.1 52.5 0 97.3-19 129.7-55 31-34.4 48-81.9 48-134 0-103.2-90.1-187.1-200.7-187.1-3.3 0-6.7 0.1-10.1 0.2-7.4 0.3-14.4-3.5-18.2-9.9-3.8-6.4-3.7-14.4 0.2-20.7 15.3-24.7 23.4-53 23.4-81.7 0-90.3-78.9-163.8-175.9-163.8-42.6 0-83.7 14.4-115.8 40.5-31.4 25.6-52.1 60.8-58.2 99-1.3 8.1-7.4 14.6-15.5 16.4-8 1.8-16.3-1.6-20.9-8.4-25.8-38.7-70.8-62-120.1-62z" fill="#424649" p-id="2464"></path></svg>